<?xml version="1.0" encoding="utf-8"?>
<svg xmlns="http://www.w3.org/2000/svg" viewBox="50 70 400 400">
  <path d="M 107.015 86.072 C 118.881 86.848 133.697 97.529 143.157 104.019 C 144.123 104.681 145.098 105.331 146.072 105.989 C 149.926 108.573 153.69 111.248 157.371 114.08 C 158.05 114.596 158.735 115.112 159.419 115.628 C 162.398 117.873 165.267 120.235 168.108 122.656 C 168.807 123.247 169.509 123.833 170.213 124.424 C 174.371 127.892 178.445 131.441 182.372 135.181 C 183.211 135.979 184.066 136.76 184.926 137.537 C 186.691 139.159 188.382 140.851 190.062 142.573 C 190.374 142.892 190.683 143.207 190.995 143.522 C 191.64 144.179 192.284 144.841 192.927 145.498 C 193.746 146.333 194.567 147.175 195.387 148.011 C 196.028 148.661 196.668 149.312 197.306 149.963 C 197.753 150.425 198.203 150.876 198.648 151.332 C 200.257 152.981 201.796 154.669 203.281 156.438 C 203.753 156.97 204.227 157.502 204.704 158.034 C 205.987 159.483 207.192 160.981 208.393 162.495 C 209.392 163.721 210.435 164.894 211.495 166.065 C 212.062 166.728 212.062 166.728 212.388 167.391 C 214.014 167.493 215.428 167.325 217.02 166.977 C 222.499 165.795 228.058 165.068 233.641 164.704 C 233.853 164.692 234.066 164.677 234.286 164.661 C 239.497 164.33 244.708 164.275 249.93 164.28 C 250.167 164.28 250.407 164.28 250.655 164.28 C 258.56 164.28 266.348 164.584 274.182 165.734 C 274.69 165.805 275.2 165.881 275.711 165.952 C 278.071 166.294 280.415 166.657 282.769 167.042 C 283.143 167.103 283.521 167.162 283.908 167.227 C 284.517 167.325 285.131 167.439 285.736 167.564 C 286.484 167.737 286.484 167.737 287.515 167.726 C 288.323 167.141 288.323 167.141 288.9 166.206 C 289.135 165.876 289.381 165.539 289.627 165.198 C 289.763 165.013 289.889 164.829 290.022 164.644 C 290.774 163.618 291.607 162.658 292.431 161.686 C 292.743 161.317 293.06 160.943 293.372 160.574 C 293.693 160.194 294.023 159.809 294.343 159.423 C 294.521 159.211 294.702 159.005 294.882 158.788 C 296.237 157.198 297.627 155.652 299.041 154.115 C 299.251 153.882 299.468 153.648 299.691 153.41 C 300.938 152.054 302.204 150.723 303.507 149.422 C 304.073 148.829 304.593 148.227 305.121 147.604 C 306.494 145.991 307.967 144.483 309.448 142.974 C 309.709 142.708 309.972 142.437 310.249 142.159 C 311.631 140.743 313.046 139.381 314.54 138.073 C 315.593 137.135 316.603 136.141 317.618 135.154 C 320.941 131.957 324.381 128.907 327.934 125.977 C 328.728 125.314 329.514 124.636 330.291 123.953 C 332.506 122.01 334.809 120.186 337.141 118.39 C 338.086 117.663 339.013 116.919 339.946 116.165 C 343.998 112.87 348.246 109.902 352.564 106.982 C 353.012 106.678 353.012 106.678 353.464 106.374 C 364.691 98.798 376.339 91.862 388.986 87.071 C 389.26 86.956 389.533 86.853 389.817 86.745 C 390.854 86.354 391.708 86.072 392.822 86.055 C 397.062 88.113 399.767 97.935 401.242 102.087 C 405.001 112.929 407.266 124.213 409.151 135.527 C 409.205 135.838 409.246 136.141 409.303 136.456 C 411.679 150.631 412.137 164.915 412.137 179.258 C 412.137 179.661 412.137 179.661 412.137 180.068 C 412.145 188.735 412.075 197.374 411.183 205.998 C 411.138 206.416 411.138 206.416 411.1 206.839 C 409.686 220.802 407.875 235.12 404.145 248.644 C 403.909 249.522 403.679 250.407 403.455 251.281 C 402.648 254.359 401.852 257.429 400.948 260.473 C 400.824 260.875 400.705 261.278 400.581 261.696 C 400.349 262.472 400.117 263.242 399.879 264.018 C 398.743 267.795 399.162 269.83 400.699 273.417 C 403.568 280.408 405.676 287.516 407.527 294.849 C 407.66 295.375 407.801 295.912 407.936 296.434 C 408.58 298.995 409.069 301.534 409.479 304.145 C 409.539 304.546 409.606 304.948 409.673 305.366 C 410.95 313.545 411.802 321.512 411.812 329.804 C 411.812 330.254 411.812 330.254 411.812 330.699 C 411.812 334.688 411.684 338.66 411.425 342.644 C 414.715 342.46 417.943 342.01 421.194 341.509 C 422.727 341.282 424.255 341.065 425.783 340.837 C 426.088 340.793 426.391 340.744 426.704 340.701 C 436.971 339.209 447.273 338.281 457.6 337.418 C 458.457 337.349 459.306 337.272 460.156 337.196 C 465.741 336.707 471.296 336.604 476.902 336.588 C 477.242 336.588 477.594 336.588 477.948 336.582 C 478.934 336.582 479.916 336.582 480.902 336.588 C 481.198 336.582 481.494 336.582 481.801 336.582 C 482.079 336.582 482.349 336.588 482.634 336.588 C 482.877 336.588 483.115 336.588 483.363 336.588 C 483.951 336.674 483.951 336.674 484.605 337.337 C 484.542 338.499 484.542 338.499 484.275 339.659 C 483.258 340.354 483.017 340.413 481.848 340.419 C 481.561 340.425 481.263 340.425 480.961 340.435 C 480.642 340.435 480.321 340.435 479.996 340.435 C 479.493 340.441 479.493 340.441 478.982 340.447 C 477.908 340.463 476.834 340.478 475.759 340.49 C 470.628 340.539 465.568 340.744 460.46 341.234 C 459.088 341.358 457.727 341.472 456.358 341.575 C 455.852 341.618 455.347 341.656 454.848 341.695 C 454.102 341.76 453.354 341.814 452.613 341.874 C 451.085 341.998 449.552 342.124 448.023 342.248 C 447.464 342.297 446.902 342.336 446.346 342.378 C 441.212 342.796 436.105 343.404 431.005 344.077 C 430.218 344.18 429.428 344.284 428.646 344.387 C 422.674 345.168 416.721 346.02 410.773 346.959 C 410.773 345.868 410.773 344.766 410.773 343.643 C 410.315 343.746 409.855 343.854 409.381 343.958 C 406.24 344.669 403.105 345.353 399.941 345.949 C 397.317 346.439 394.717 347.014 392.112 347.626 C 391.782 347.702 391.44 347.784 391.094 347.865 C 388.431 348.506 385.776 349.211 383.132 349.955 C 382.897 350.014 382.666 350.079 382.424 350.144 C 375.504 352.071 368.646 354.144 361.849 356.505 C 361.554 356.608 361.265 356.7 360.96 356.803 C 356.89 358.22 352.927 359.81 348.985 361.569 C 348.985 362.116 348.985 362.665 348.985 363.223 C 351.289 363.055 353.294 362.138 355.425 361.275 C 362.851 358.328 370.442 355.848 378.146 353.802 C 378.853 353.612 379.547 353.417 380.235 353.205 C 387.255 351.111 394.457 349.585 401.629 348.141 C 402.028 348.061 402.434 347.98 402.842 347.898 C 405.38 347.398 407.875 347.106 410.45 346.959 C 410.107 352.284 408.847 357.542 407.344 362.648 C 407.253 362.942 407.161 363.234 407.072 363.538 C 407.005 363.767 406.941 363.989 406.871 364.223 C 407.344 364.217 407.344 364.217 407.818 364.211 C 423.677 364.027 439.341 364.135 455.126 365.763 C 456.415 365.888 457.696 366.019 458.987 366.143 C 459.666 366.208 460.347 366.273 461.033 366.344 C 461.663 366.398 462.304 366.463 462.943 366.528 C 471.963 367.414 480.928 368.879 489.869 370.382 C 490.733 370.522 491.602 370.659 492.474 370.8 C 492.971 370.875 493.472 370.963 493.97 371.044 C 494.195 371.077 494.418 371.115 494.649 371.153 C 495.863 371.358 496.73 371.608 497.609 372.515 C 497.732 373.535 497.732 373.535 497.609 374.511 C 496.965 375.174 496.965 375.174 495.824 375.255 C 494.198 375.211 492.637 374.897 491.046 374.576 C 487.817 373.92 484.58 373.449 481.321 372.987 C 480.368 372.851 479.413 372.71 478.458 372.574 C 469.257 371.25 460.055 370.029 450.785 369.28 C 449.738 369.194 448.683 369.106 447.63 369.014 C 433.711 367.853 419.866 367.706 405.897 367.874 C 405.785 368.14 405.679 368.412 405.563 368.688 C 405.418 369.047 405.276 369.399 405.128 369.769 C 404.987 370.122 404.84 370.479 404.69 370.838 C 404.155 372.151 403.6 373.453 403.029 374.756 C 402.918 375.012 402.82 375.255 402.701 375.516 C 401.572 378.099 400.329 380.622 399.069 383.14 C 400.532 383.835 401.989 384.068 403.568 384.324 C 404.163 384.422 404.763 384.519 405.363 384.617 C 405.835 384.692 405.835 384.692 406.327 384.78 C 429.128 388.567 451.438 394.098 473.42 401.332 C 473.68 401.413 473.936 401.506 474.205 401.587 C 474.909 401.821 475.616 402.06 476.325 402.293 C 476.712 402.428 477.107 402.553 477.512 402.693 C 478.424 403.052 478.424 403.052 479.072 403.719 C 479.152 404.718 479.152 404.718 479.072 405.712 C 478.424 406.373 478.424 406.373 477.409 406.467 C 475.98 406.363 474.811 406.016 473.466 405.537 C 473.216 405.457 472.968 405.364 472.71 405.277 C 471.919 405.006 471.128 404.724 470.33 404.441 C 469.803 404.262 469.275 404.077 468.741 403.899 C 467.763 403.557 466.79 403.215 465.811 402.869 C 465.345 402.71 464.898 402.553 464.441 402.396 C 464.191 402.303 463.936 402.217 463.682 402.125 C 462.329 401.663 460.996 401.24 459.606 400.909 C 457.691 400.425 455.807 399.878 453.909 399.302 C 447.75 397.452 441.585 395.774 435.319 394.358 C 434.204 394.098 433.093 393.832 431.984 393.566 C 426.211 392.215 420.408 391.113 414.572 390.049 C 414.202 389.978 413.82 389.908 413.424 389.837 C 407.892 388.823 402.35 387.934 396.792 387.125 C 396.585 387.467 396.381 387.803 396.181 388.166 C 392.43 394.478 388.002 400.176 383.145 405.625 C 382.552 406.295 381.976 406.973 381.398 407.659 C 379.044 410.422 376.444 412.979 373.698 415.337 C 373.4 415.598 373.1 415.866 372.792 416.137 C 351.95 434.502 325.753 446.979 299.108 453.619 C 298.486 453.78 297.863 453.937 297.238 454.098 C 290.478 455.842 283.686 457.031 276.793 458.056 C 276.181 458.147 275.57 458.239 274.959 458.335 C 251.536 461.94 226.569 460.303 203.607 454.502 C 203.192 454.397 202.78 454.299 202.351 454.189 C 201.367 453.931 200.384 453.655 199.406 453.375 C 198.921 453.229 198.433 453.093 197.947 452.959 C 184.209 449.093 171.112 443.785 158.4 437.242 C 158.103 437.093 157.808 436.936 157.498 436.777 C 145.207 430.439 132.958 422.153 123.309 412.053 C 122.756 411.485 122.205 410.977 121.589 410.485 C 120.602 409.636 119.81 408.711 118.975 407.712 C 118.442 407.088 117.886 406.513 117.3 405.939 C 116.103 404.735 115.053 403.432 114.001 402.092 C 113.456 401.392 112.901 400.708 112.334 400.024 C 110.116 397.327 108.166 394.455 106.261 391.519 C 106.136 391.324 106.009 391.134 105.878 390.939 C 105.516 390.38 105.161 389.821 104.805 389.268 C 104.593 388.943 104.386 388.617 104.171 388.28 C 104.037 388.008 103.901 387.732 103.763 387.455 C 103.871 387.125 103.978 386.804 104.088 386.457 C 105.377 386.234 106.664 386.012 107.951 385.79 C 108.598 385.68 109.244 385.561 109.889 385.448 C 112.81 384.948 115.729 384.547 118.675 384.21 C 119.367 384.133 120.055 384.057 120.747 383.976 C 122.205 383.808 123.665 383.646 125.126 383.493 C 125.392 383.461 125.658 383.434 125.932 383.406 C 133.914 382.576 141.932 382.207 149.942 381.811 C 150.051 381.263 150.158 380.721 150.268 380.155 C 134.123 379.955 118.113 381.431 102.137 383.808 C 102.349 384.172 102.565 384.547 102.787 384.921 C 103.438 386.044 103.438 386.044 103.438 386.793 C 103.077 386.858 102.721 386.917 102.351 386.988 C 92.961 388.633 92.961 388.633 83.597 390.44 C 83.281 390.51 82.965 390.57 82.64 390.641 C 80.903 390.987 79.167 391.341 77.433 391.7 C 76.241 391.949 75.044 392.182 73.851 392.42 C 60.33 395.086 46.933 398.726 33.84 403.052 C 33.502 403.172 33.165 403.28 32.821 403.389 C 31.311 403.904 29.812 404.43 28.323 404.99 C 28.034 405.103 27.744 405.207 27.444 405.32 C 26.865 405.537 26.293 405.754 25.716 405.977 C 24.2 406.54 23.078 406.922 21.482 406.373 C 21.041 405.472 21.135 404.713 21.157 403.719 C 23.04 402.635 24.952 401.967 27.013 401.342 C 28.101 401.012 29.169 400.659 30.231 400.246 C 31.682 399.677 33.161 399.233 34.653 398.781 C 36.652 398.174 38.645 397.56 40.628 396.914 C 43.524 395.986 46.451 395.172 49.382 394.374 C 50.101 394.185 50.82 393.989 51.537 393.788 C 57.786 392.079 64.062 390.602 70.389 389.246 C 71.947 388.915 73.501 388.567 75.053 388.22 C 79.545 387.211 84.04 386.337 88.583 385.609 C 89.399 385.474 90.209 385.327 91.023 385.187 C 94.497 384.562 97.974 384.14 101.488 383.808 C 101.394 383.607 101.298 383.417 101.204 383.216 C 99.448 379.564 97.743 375.891 96.22 372.129 C 96.098 371.82 95.969 371.51 95.842 371.196 C 95.728 370.908 95.613 370.621 95.497 370.327 C 95.396 370.078 95.296 369.822 95.194 369.567 C 94.982 368.868 94.982 368.868 94.982 367.538 C 96.908 367.533 98.831 367.527 100.756 367.522 C 101.41 367.516 102.062 367.516 102.712 367.516 C 106.975 367.5 111.216 367.576 115.471 367.874 C 115.867 367.896 116.261 367.924 116.67 367.955 C 122.53 368.401 128.336 369.182 134.151 370.029 C 134.491 370.083 134.831 370.127 135.18 370.18 C 138.871 370.724 142.548 371.299 146.211 372.01 C 147.262 372.173 148.234 372.221 149.292 372.189 C 149.4 371.64 149.508 371.088 149.619 370.522 C 145.982 369.578 142.311 368.982 138.602 368.412 C 138.279 368.362 137.956 368.314 137.622 368.259 C 126.282 366.512 114.899 365.336 103.438 364.879 C 103.207 364.873 102.974 364.868 102.734 364.857 C 99.824 364.743 96.917 364.634 94.007 364.548 C 94.223 365.54 94.435 366.523 94.657 367.538 C 94.387 367.538 94.117 367.544 93.842 367.548 C 66.938 367.744 40.24 368.927 13.695 373.724 C 13.112 373.828 12.53 373.931 11.945 374.039 C 11.387 374.137 10.829 374.241 10.273 374.338 C 10.016 374.381 9.758 374.425 9.498 374.474 C 8.523 374.658 7.552 374.832 6.582 375.033 C 5.326 375.282 4.088 375.488 2.964 374.778 C 2.492 373.958 2.479 373.453 2.618 372.515 C 3.213 371.591 3.681 371.5 4.754 371.228 C 5.239 371.136 5.727 371.055 6.219 370.973 C 6.479 370.93 6.746 370.881 7.018 370.843 C 7.888 370.691 8.761 370.544 9.632 370.403 C 10.24 370.3 10.852 370.197 11.461 370.094 C 13 369.834 14.538 369.584 16.079 369.34 C 16.849 369.215 17.623 369.09 18.393 368.96 C 25.788 367.744 33.214 366.93 40.664 366.154 C 42.27 365.985 43.877 365.807 45.481 365.622 C 49.173 365.177 52.872 364.9 56.586 364.684 C 56.942 364.657 57.298 364.634 57.668 364.613 C 69.655 363.908 81.68 364.13 93.682 364.223 C 93.627 364.042 93.571 363.864 93.514 363.674 C 91.524 357.021 91.524 357.021 90.812 353.726 C 90.75 353.439 90.681 353.146 90.617 352.847 C 90.185 350.893 89.932 348.956 89.778 346.959 C 89.45 346.963 89.123 346.98 88.784 346.986 C 87.542 346.959 86.413 346.823 85.193 346.606 C 84.73 346.524 84.265 346.454 83.803 346.373 C 83.555 346.329 83.308 346.286 83.056 346.243 C 67.915 343.669 52.721 342.059 37.417 340.989 C 36.999 340.957 36.999 340.957 36.569 340.924 C 33.653 340.728 30.745 340.631 27.824 340.587 C 27.346 340.577 27.346 340.577 26.859 340.566 C 25.549 340.555 24.242 340.533 22.935 340.522 C 21.961 340.512 20.989 340.495 20.017 340.484 C 19.721 340.484 19.424 340.478 19.12 340.478 C 18.844 340.474 18.57 340.463 18.288 340.457 C 18.048 340.457 17.808 340.457 17.562 340.452 C 16.742 340.283 16.451 340.002 15.952 339.328 C 15.852 338.313 15.852 338.313 15.952 337.337 C 16.727 336.544 16.882 336.588 17.934 336.588 C 18.211 336.588 18.488 336.582 18.775 336.582 C 19.078 336.582 19.381 336.582 19.692 336.588 C 20.006 336.582 20.323 336.582 20.648 336.582 C 21.685 336.582 22.722 336.582 23.759 336.588 C 24.288 336.593 24.288 336.593 24.83 336.593 C 34.501 336.625 44.001 337.342 53.607 338.439 C 55.17 338.617 56.736 338.769 58.307 338.91 C 66.179 339.6 74.013 340.902 81.831 342.063 C 82.124 342.107 82.415 342.151 82.717 342.2 C 83.547 342.319 84.376 342.444 85.207 342.562 C 85.453 342.607 85.699 342.638 85.954 342.682 C 87.027 342.84 88.084 343.007 89.129 343.312 C 89.08 342.97 89.034 342.627 88.985 342.275 C 87.514 330.406 88.341 317.865 90.429 306.136 C 90.466 305.919 90.505 305.703 90.545 305.48 C 92.182 296.145 94.571 287.164 97.645 278.209 C 97.725 277.976 97.805 277.742 97.885 277.504 C 98.119 276.826 98.355 276.141 98.593 275.473 C 98.67 275.257 98.745 275.04 98.823 274.817 C 99.464 273.027 100.296 271.372 101.22 269.711 C 101.622 268.071 101.048 266.867 100.51 265.309 C 100.332 264.69 100.158 264.072 99.989 263.453 C 99.9 263.133 99.807 262.807 99.715 262.472 C 94.944 245.241 94.944 245.241 93.356 236.762 C 93.244 236.177 93.244 236.177 93.132 235.575 C 92.115 230.153 91.31 224.705 90.576 219.234 C 90.429 218.176 90.264 217.117 90.098 216.059 C 89.734 213.666 89.503 211.268 89.29 208.863 C 89.268 208.63 89.249 208.407 89.229 208.168 C 88.802 203.431 88.442 198.693 88.152 193.944 C 88.132 193.651 88.112 193.353 88.092 193.05 C 87.386 181.896 87.649 170.619 88.429 159.478 C 88.475 158.773 88.521 158.067 88.566 157.366 C 89.495 143.007 91.611 128.516 95.307 114.617 C 95.381 114.336 95.454 114.059 95.53 113.766 C 101.341 91.862 101.341 91.862 107.015 86.072 Z" fill="#7F469A" style="stroke-width: 1;"/>
  <path d="M 230.558 192.467 C 230.558 193.707 230.325 193.945 229.594 194.918 C 226.167 199.836 225.07 205.749 226.129 211.589 C 227.582 218.382 231.296 223.948 237.167 227.751 C 243.807 231.856 251.583 233.185 259.266 231.639 C 266.506 229.655 272.685 225.667 276.529 219.185 C 279.423 213.382 280.564 206.09 278.576 199.844 C 277.683 197.539 276.445 195.543 275.005 193.525 C 274.894 193.294 274.777 193.06 274.653 192.821 C 276.361 193.586 277.585 194.76 278.954 196.001 C 279.189 196.201 279.417 196.399 279.651 196.607 C 285.197 201.679 288.776 209.601 289.082 217.027 C 289.303 227.042 286.43 235.877 279.391 243.271 C 278.889 243.777 278.387 244.282 277.879 244.788 C 277.592 245.073 277.318 245.353 277.019 245.648 C 273.506 248.968 269.178 251.3 264.617 252.917 C 264.329 253.02 264.05 253.127 263.757 253.235 C 254.711 256.247 244.44 254.925 236.007 250.849 C 226.782 246.101 221.071 238.547 217.651 229.046 C 215.068 220.243 216.301 211.066 220.742 203.084 C 223.187 199.109 226.715 195.183 230.558 192.467 Z" fill="#FDFBFD" style="stroke-width: 1;"/>
  <path d="M 1018.8 -682.79 C 1019.61 -682.41 1020.4 -682.03 1021.22 -681.64 C 1019.96 -680.77 1018.71 -679.9 1017.43 -678.99 C 1006.25 -671.16 995.338 -663.01 984.591 -654.44 C 983.828 -653.81 983.066 -653.19 982.267 -652.55 C 980.509 -651.13 978.724 -649.71 976.983 -648.27 C 969.771 -642.4 969.771 -642.4 966.478 -642.4 C 967.591 -645.58 967.591 -645.58 969.457 -648.95 C 971.394 -649.53 973.377 -650.08 975.378 -650.58 C 975.844 -652.19 976.311 -653.81 976.84 -655.48 C 979.872 -656.6 979.872 -656.6 982.779 -657.12 C 982.779 -658.19 982.779 -659.28 982.779 -660.38 C 987.56 -664.18 991.741 -666.01 997.554 -666.92 C 998.021 -668.54 998.532 -670.16 999.043 -671.83 C 1002.53 -674.87 1002.53 -674.87 1006.91 -677.96 C 1008.31 -678.99 1009.75 -680.03 1011.24 -681.11 C 1015.32 -683.28 1015.32 -683.28 1018.8 -682.79 Z" fill="#7B518D" style="stroke-width: 1;"/>
  <path d="M -229.18 -697.98 C -227.13 -691.19 -229.7 -687.26 -232.33 -681.12 C -237.35 -668.97 -241.58 -656.7 -245.46 -644.04 C -246.44 -644.04 -247.41 -644.04 -248.42 -644.04 C -245.89 -663.72 -238.05 -680.98 -229.18 -697.98 Z" fill="#7A538C" style="stroke-width: 1;"/>
  <path d="M 963.509 -684.9 C 963.509 -683.83 963.509 -682.75 963.509 -681.64 C 939.574 -662.02 939.574 -662.02 929.482 -662.02 C 934.81 -668.75 941.234 -672.73 948.159 -677.15 C 949.317 -677.89 950.465 -678.64 951.649 -679.42 C 960.163 -684.9 960.163 -684.9 963.509 -684.9 Z" fill="#7F5891" style="stroke-width: 1;"/>
  <path d="M 1059.71 -704.52 C 1054.97 -699.28 1048.9 -696.76 1042.88 -693.59 C 1041.61 -692.89 1040.32 -692.19 1039.01 -691.47 C 1037.75 -690.81 1036.53 -690.16 1035.26 -689.48 C 1033.55 -688.57 1033.55 -688.57 1031.84 -687.66 C 1028.16 -686.38 1026.29 -686.77 1022.71 -688.17 C 1051.1 -705.38 1051.1 -705.38 1059.71 -704.52 Z" fill="#7D568E" style="stroke-width: 1;"/>
  <path d="M 1018.8 -682.79 C 1019.61 -682.41 1020.4 -682.03 1021.22 -681.64 C 1017.94 -679.29 1014.63 -676.94 1011.32 -674.59 C 1010.41 -673.93 1009.49 -673.27 1008.54 -672.59 C 1003.43 -668.97 998.317 -665.42 993.113 -662.02 C 993.113 -663.64 993.113 -665.26 993.113 -666.92 C 994.585 -666.92 996.038 -666.92 997.554 -666.92 C 998.021 -668.54 998.532 -670.16 999.043 -671.83 C 1002.53 -674.87 1002.53 -674.87 1006.91 -677.96 C 1008.31 -678.99 1009.75 -680.03 1011.24 -681.11 C 1015.32 -683.28 1015.32 -683.28 1018.8 -682.79 Z" fill="#7F5A92" style="stroke-width: 1;"/>
  <path d="M 1074.5 -697.98 C 1078.48 -694.09 1080.58 -690.04 1082.9 -684.8 C 1083.58 -683.37 1084.21 -681.93 1084.88 -680.45 C 1086.35 -676.73 1086.35 -676.73 1086.35 -673.47 C 1081.89 -675.1 1081.89 -675.1 1079.85 -679.02 C 1079.21 -680.63 1078.56 -682.23 1077.89 -683.88 C 1077.27 -685.49 1076.64 -687.08 1075.97 -688.72 C 1074.5 -693.08 1074.5 -693.08 1074.5 -697.98 Z" fill="#79518A" style="stroke-width: 1;"/>
  <path d="M 1099.64 -683.28 C 1100.62 -683.28 1101.61 -683.28 1102.61 -683.28 C 1103.61 -680.62 1104.61 -677.96 1105.58 -675.3 C 1106.41 -673.08 1106.41 -673.08 1107.24 -670.82 C 1108.56 -666.92 1108.56 -666.92 1108.56 -663.66 C 1107.54 -663.66 1106.58 -663.66 1105.58 -663.66 C 1102.83 -668.78 1102.32 -672.44 1102.61 -678.37 C 1101.65 -678.37 1100.68 -678.37 1099.64 -678.37 C 1099.64 -679.99 1099.64 -681.6 1099.64 -683.28 Z" fill="#876394" style="stroke-width: 1;"/>
  <path d="M -146.31 -701.26 C -140.21 -700.26 -135.47 -697.92 -130.04 -694.71 C -132.35 -693.49 -132.35 -693.49 -135.96 -693.08 C -139.66 -694.93 -142.87 -697.2 -146.31 -699.62 C -146.31 -700.16 -146.31 -700.7 -146.31 -701.26 Z" fill="#7C558D" style="stroke-width: 1;"/>
  <path d="M -218.83 -735.58 C -209.02 -734.35 -209.02 -734.35 -204.03 -730.67 C -210.21 -728.4 -213.1 -730.97 -218.83 -733.94 C -218.83 -734.48 -218.83 -735.03 -218.83 -735.58 Z" fill="#7C558F" style="stroke-width: 1;"/>
</svg>